<svg xmlns="http://www.w3.org/2000/svg" viewBox="0 0 160 160" role="img" aria-label="Salt Bread Tycoon">
  <rect width="160" height="160" rx="38" fill="#FFF4DE"/>
  <path d="M36 91c0-30 18-50 44-50s44 20 44 50c0 19-14 30-44 30S36 110 36 91Z" fill="#D88A3B"/>
  <path d="M42 86c4-23 17-35 38-35s34 12 38 35c-18-7-51-7-76 0Z" fill="#F2B96A"/>
  <path d="m63 66 6 5m20-5-6 5m-29 17 8 2m27-2 8-2" stroke="#fff4de" stroke-width="6" stroke-linecap="round"/>
  <circle cx="68" cy="96" r="4" fill="#7C3F17"/><circle cx="91" cy="96" r="4" fill="#7C3F17"/>
</svg>
